<svg xmlns="http://www.w3.org/2000/svg" viewBox="0 0 512 512">
    <g data-name="Layer 2">
        <g data-name="Layer 1">
            <circle cx="256" cy="256" r="256" fill="#2d9145"></circle>
            <path d="M211.82 320.23V110.38A35.36 35.36 0 0 0 176.46 75a35.36 35.36 0 0 0-35.36 35.36V391a35.36 35.36 0 0 0 35.36 35.36H356.1A35.36 35.36 0 0 0 391.46 391a35.36 35.36 0 0 0-35.36-35.36H247.18a35.36 35.36 0 0 1-35.36-35.41Z" fill="#fff"></path>
            <rect width="61.95" height="142.12" x="260.25" y="206.8" fill="#fff" rx="28.35" transform="rotate(-45 291.224 277.861)"></rect>
            <rect width="61.95" height="142.12" x="260.25" y="70.12" fill="#fff" rx="28.35" transform="rotate(45 291.23 141.182)"></rect>
            <text fill="#fff" font-family="Roboto-Bold,Roboto" font-size="21" font-weight="700" letter-spacing=".03em" transform="translate(366.68 93.55)">TM</text>
        </g>
    </g>
</svg>