<?xml version="1.0" standalone="no"?>
<!DOCTYPE svg PUBLIC "-//W3C//DTD SVG 20010904//EN"
 "http://www.w3.org/TR/2001/REC-SVG-20010904/DTD/svg10.dtd">
<svg version="1.0" xmlns="http://www.w3.org/2000/svg"
 width="700.000000pt" height="700.000000pt" viewBox="0 0 700.000000 700.000000"
 preserveAspectRatio="xMidYMid meet">
<metadata>
Created by potrace 1.14, written by Peter Selinger 2001-2017
</metadata>
<g transform="translate(0.000000,700.000000) scale(0.100000,-0.100000)"
fill="#000000" stroke="none">
<path d="M3280 6994 c-19 -2 -84 -9 -145 -14 -410 -40 -846 -169 -1225 -362
-343 -176 -628 -387 -908 -672 -561 -572 -883 -1252 -984 -2081 -7 -56 -12
-217 -12 -365 0 -268 7 -362 45 -588 96 -575 348 -1138 716 -1597 115 -144
339 -373 483 -494 537 -451 1157 -715 1885 -803 135 -16 590 -16 735 1 512 58
1002 222 1426 478 635 383 1136 957 1422 1628 255 599 339 1259 242 1898 -93
610 -340 1176 -726 1662 -116 147 -431 459 -574 569 -523 404 -1101 642 -1750
722 -117 15 -553 27 -630 18z m-718 -1045 c150 -50 264 -166 315 -319 17 -52
18 -139 23 -1590 l5 -1535 23 -58 c50 -122 156 -227 282 -279 l55 -23 850 -5
c849 -5 850 -5 909 -28 289 -109 409 -423 264 -694 -36 -68 -128 -158 -199
-193 -110 -56 -65 -55 -1454 -54 -1427 0 -1348 -4 -1469 69 -69 42 -148 124
-182 191 -57 114 -54 -9 -54 2136 0 1397 3 1987 11 2025 35 166 162 306 327
359 81 26 215 25 294 -2z m2623 -39 c0 -10 -12 -16 -32 -18 l-33 -3 0 -85 c0
-77 -2 -84 -20 -84 -18 0 -20 7 -20 85 l0 85 -30 0 c-24 0 -30 4 -30 20 0 20
5 21 83 18 65 -2 82 -6 82 -18z m90 8 c2 -7 15 -42 28 -76 l23 -64 25 74 c23
64 30 73 53 76 l26 3 0 -105 c0 -99 -1 -106 -20 -106 -18 0 -20 7 -21 68 0 37
-3 60 -6 52 -3 -8 -14 -39 -25 -67 -11 -29 -26 -53 -33 -53 -7 0 -22 24 -33
53 -11 28 -22 59 -25 67 -3 8 -6 -15 -6 -52 -1 -61 -3 -68 -21 -68 -19 0 -20
7 -20 105 l0 105 25 0 c14 0 28 -6 30 -12z m-845 -29 c89 -14 167 -59 245
-139 92 -96 128 -176 129 -284 1 -101 -20 -166 -79 -244 -24 -31 -236 -249
-472 -483 -464 -462 -473 -469 -602 -490 -77 -12 -154 0 -231 38 -73 35 -188
151 -226 229 -26 54 -29 68 -29 164 0 176 -20 149 512 682 479 479 504 501
613 524 71 16 64 16 140 3z m-702 -1887 c28 -11 73 -36 99 -55 26 -20 242
-231 479 -469 463 -465 470 -473 495 -601 15 -73 0 -166 -38 -241 -37 -72
-157 -190 -229 -224 -53 -24 -70 -27 -164 -27 -176 0 -149 -20 -683 513 -538
537 -522 516 -522 692 0 96 3 110 29 165 35 70 150 191 214 224 105 54 218 62
320 23z"/>
</g>
</svg>
